<svg width="520" height="620" viewBox="0 0 520 620" fill="none" xmlns="http://www.w3.org/2000/svg">
  <g opacity=".55">
    <path d="M156 82c54 38 82 89 88 154 5 62-12 124-50 186" stroke="#9AA08F" stroke-width="4" stroke-linecap="round"/>
    <path d="M238 181c50-34 91-35 124-2-51 18-92 19-124 2Z" fill="#B5B7A6"/>
    <path d="M218 259c43 4 70 26 82 66-44-5-72-27-82-66Z" fill="#C1B7A9"/>
    <path d="M181 342c-43 1-75-17-95-53 46-4 77 14 95 53Z" fill="#C9BEB0"/>
    <path d="M185 151c-43-3-73-24-91-62 46 0 77 21 91 62Z" fill="#B8BAA9"/>
    <path d="M243 101c22-39 52-58 91-55-22 41-52 59-91 55Z" fill="#D0C4B6"/>
  </g>
  <g opacity=".75">
    <circle cx="95" cy="113" r="62" fill="#EBCFC6"/>
    <path d="M96 57c34 17 47 53 29 81-18 29-58 33-84 9 29-5 44-19 45-43 1-21-8-35-31-45 14-8 28-9 41-2Z" fill="#D7A39C"/>
    <path d="M53 118c16-35 51-50 82-35 30 14 39 52 19 82-8-29-24-42-48-39-22 3-36 15-43 39-10-13-13-30-10-47Z" fill="#F3DED8"/>
    <path d="M127 157c-32 20-69 14-88-14-19-28-8-66 24-82-4 29 6 47 28 56 21 8 38 4 55-15 5 17-1 38-19 55Z" fill="#E2B5AD"/>
    <circle cx="100" cy="118" r="24" fill="#C97877"/>
    <path d="M83 123c6-18 24-27 40-20 15 7 20 27 9 41-2-18-10-27-24-29-12-1-20 2-25 8Z" fill="#F6E4DF"/>
  </g>
</svg>
